<?xml version="1.0" encoding="iso-8859-1"?>
<!-- Generator: Adobe Illustrator 19.0.0, SVG Export Plug-In . SVG Version: 6.00 Build 0)  -->
<svg xmlns="http://www.w3.org/2000/svg" xmlns:xlink="http://www.w3.org/1999/xlink" version="1.1" id="Layer_1" x="0px" y="0px" viewBox="0 0 511.998 511.998" style="enable-background:new 0 0 511.998 511.998;" xml:space="preserve" width="512px" height="512px">
<g>
	<g>
		<path d="M418.263,162.273c0-44.072-17.368-85.306-48.905-116.104C337.835,15.382,296.24-0.995,252.07,0.047    C163.31,2.15,92.291,76.14,93.758,164.979c0.636,38.924,15.284,76.346,41.241,105.37c17.646,19.735,30.882,42.766,38.794,67.263    c-4.315,1.756-7.36,5.985-7.36,10.93c0,6.518,5.285,11.802,11.802,11.802h1.293c1.893,10.366,2.861,20.887,2.861,31.393v2.75    v24.418c0,36.571,26.818,66.987,61.82,72.65v8.641c0,6.518,5.285,11.802,11.802,11.802c6.517,0,11.802-5.284,11.802-11.802v-8.641    c34.995-5.666,61.806-36.08,61.806-72.65v-24.418v-2.773c0-10.493,0.942-21.007,2.783-31.37h0.71    c6.517,0,11.802-5.284,11.802-11.802c0-4.788-2.856-8.901-6.954-10.752c7.786-24.599,20.83-47.388,38.222-66.536    C403.318,241.371,418.263,202.667,418.263,162.273z M306.015,418.906c0,27.573-22.432,50.005-50.004,50.005    c-27.58,0-50.018-22.432-50.018-50.005V406.29h100.021V418.906z M306.238,382.686H205.764c-0.343-7.478-1.112-14.94-2.299-22.341    h26.061h52.955h26C307.322,367.749,306.573,375.212,306.238,382.686z M241.328,336.741v-24.265    c0-8.096,6.587-14.682,14.682-14.682c3.918,0,7.602,1.526,10.363,4.288c2.778,2.784,4.307,6.475,4.307,10.394v24.265H241.328z     M313.642,336.741h-19.359v-24.265c0-9.55-3.479-18.573-9.843-25.63l29.69-55.475c3.076-5.748,0.91-12.898-4.836-15.975    c-5.744-3.074-12.898-0.91-15.974,4.836l-29.325,54.795c-2.596-0.549-5.267-0.838-7.984-0.838c-2.64,0-5.219,0.269-7.709,0.78    l-29.295-54.737c-3.074-5.746-10.228-7.912-15.974-4.836c-5.746,3.076-7.912,10.228-4.836,15.975l29.583,55.274    c-6.24,6.814-10.054,15.884-10.054,25.83v24.265h-19.526c-8.607-30.002-24.24-58.233-45.603-82.125    c-22.179-24.798-34.693-56.768-35.235-90.023c-1.255-75.922,59.427-139.151,135.27-140.948    c37.712-0.898,73.298,13.105,100.237,39.411c26.95,26.32,41.792,61.555,41.792,99.218c0,34.515-12.767,67.583-35.951,93.113    C337.608,278.616,322.161,306.583,313.642,336.741z" fill="#FFFFFF"/>
	</g>
</g>
<g>
	<g>
		<path d="M321.499,151.651c-6.517,0-11.802,5.284-11.802,11.802c0,5.532-4.5,10.032-10.032,10.032    c-5.532,0-10.032-4.5-10.032-10.032c0-6.518-5.285-11.802-11.802-11.802s-11.802,5.284-11.802,11.802    c0,5.532-4.5,10.032-10.032,10.032s-10.032-4.5-10.032-10.032c0-6.518-5.285-11.802-11.802-11.802s-11.802,5.284-11.802,11.802    c0,5.532-4.5,10.032-10.032,10.032s-10.032-4.5-10.032-10.032c0-6.518-5.285-11.802-11.802-11.802s-11.802,5.284-11.802,11.802    c0,18.547,15.089,33.636,33.636,33.636c8.325,0,15.955-3.041,21.834-8.069c5.879,5.028,13.509,8.069,21.834,8.069    s15.955-3.041,21.834-8.069c5.879,5.028,13.509,8.069,21.834,8.069c18.547,0,33.635-15.089,33.635-33.636    C333.301,156.935,328.016,151.651,321.499,151.651z" fill="#FFFFFF"/>
	</g>
</g>
<g>
</g>
<g>
</g>
<g>
</g>
<g>
</g>
<g>
</g>
<g>
</g>
<g>
</g>
<g>
</g>
<g>
</g>
<g>
</g>
<g>
</g>
<g>
</g>
<g>
</g>
<g>
</g>
<g>
</g>
</svg>
