<?xml version="1.0" encoding="iso-8859-1"?>
<!-- Generator: Adobe Illustrator 19.0.0, SVG Export Plug-In . SVG Version: 6.00 Build 0)  -->
<svg version="1.1" id="Capa_1" xmlns="http://www.w3.org/2000/svg" xmlns:xlink="http://www.w3.org/1999/xlink" x="0px" y="0px"
	 viewBox="0 0 512 512" style="enable-background:new 0 0 512 512;" xml:space="preserve">
<g>
	<g>
		<path d="M480,32H32C14.327,32,0,46.327,0,64v298.667c0,17.673,14.327,32,32,32h96v-21.333H32c-5.891,0-10.667-4.776-10.667-10.667
			V64c0-5.891,4.776-10.667,10.667-10.667h448c5.891,0,10.667,4.776,10.667,10.667v117.333H512V64C512,46.327,497.673,32,480,32z"/>
	</g>
</g>
<g>
	<g>
		<path d="M128,85.333H64c-5.891,0-10.667,4.776-10.667,10.667v42.667c0,5.891,4.776,10.667,10.667,10.667h64
			c5.891,0,10.667-4.776,10.667-10.667V96C138.667,90.109,133.891,85.333,128,85.333z M117.333,128H74.667v-21.333h42.667V128z"/>
	</g>
</g>
<g>
	<g>
		<path d="M352,74.667c-23.564,0-42.667,19.102-42.667,42.667S328.436,160,352,160c23.564,0,42.667-19.103,42.667-42.667
			S375.564,74.667,352,74.667z M352,138.667c-11.782,0-21.333-9.551-21.333-21.333C330.667,105.551,340.218,96,352,96
			s21.333,9.551,21.333,21.333C373.333,129.115,363.782,138.667,352,138.667z"/>
	</g>
</g>
<g>
	<g>
		<path d="M416,74.667c-23.564,0-42.667,19.102-42.667,42.667S392.436,160,416,160c23.564,0,42.667-19.103,42.667-42.667
			S439.564,74.667,416,74.667z M416,138.667c-11.782,0-21.333-9.551-21.333-21.333C394.667,105.551,404.218,96,416,96
			c11.782,0,21.333,9.551,21.333,21.333C437.333,129.115,427.782,138.667,416,138.667z"/>
	</g>
</g>
<g>
	<g>
		<path d="M298.667,224v-21.333H64c-5.891,0-10.667,4.776-10.667,10.667V256c0,5.891,4.776,10.667,10.667,10.667h234.667v-21.333
			h-224V224H298.667z"/>
	</g>
</g>
<g>
	<g>
		<rect x="53.333" y="298.667" width="21.333" height="21.333"/>
	</g>
</g>
<g>
	<g>
		<rect x="96" y="298.667" width="21.333" height="21.333"/>
	</g>
</g>
<g>
	<g>
		<path d="M501.333,416H330.667c-5.891,0-10.667,4.776-10.667,10.667v32c0,11.782,9.551,21.333,21.333,21.333h149.333
			c11.782,0,21.333-9.551,21.333-21.333v-32C512,420.776,507.224,416,501.333,416z M490.667,458.667H341.333v-21.333h149.333
			V458.667z"/>
	</g>
</g>
<g>
	<g>
		<path d="M490.667,373.333H341.333c-11.782,0-21.333,9.551-21.333,21.333v32c0,5.891,4.776,10.667,10.667,10.667h170.667
			c5.891,0,10.667-4.776,10.667-10.667v-32C512,382.885,502.449,373.333,490.667,373.333z M490.667,416H341.333v-21.333h149.333V416
			z"/>
	</g>
</g>
<g>
	<g>
		<path d="M501.333,330.667H330.667c-5.891,0-10.667,4.776-10.667,10.667v32c0,11.782,9.551,21.333,21.333,21.333h149.333
			c11.782,0,21.333-9.551,21.333-21.333v-32C512,335.442,507.224,330.667,501.333,330.667z M490.667,373.333H341.333V352h149.333
			V373.333z"/>
	</g>
</g>
<g>
	<g>
		<path d="M330.667,416H160c-5.891,0-10.667,4.776-10.667,10.667v32c0,11.782,9.551,21.333,21.333,21.333H320
			c11.782,0,21.333-9.551,21.333-21.333v-32C341.333,420.776,336.558,416,330.667,416z M320,458.667H170.667v-21.333H320V458.667z"
			/>
	</g>
</g>
<g>
	<g>
		<path d="M320,373.333H170.667c-11.782,0-21.333,9.551-21.333,21.333v32c0,5.891,4.776,10.667,10.667,10.667h170.667
			c5.891,0,10.667-4.776,10.667-10.667v-32C341.333,382.885,331.782,373.333,320,373.333z M320,416H170.667v-21.333H320V416z"/>
	</g>
</g>
<g>
	<g>
		<path d="M330.667,330.667H160c-5.891,0-10.667,4.776-10.667,10.667v32c0,11.782,9.551,21.333,21.333,21.333H320
			c11.782,0,21.333-9.551,21.333-21.333v-32C341.333,335.442,336.558,330.667,330.667,330.667z M320,373.333H170.667V352H320
			V373.333z"/>
	</g>
</g>
<g>
	<g>
		<path d="M330.667,288H160c-5.891,0-10.667,4.776-10.667,10.667v32c0,11.782,9.551,21.333,21.333,21.333H320
			c11.782,0,21.333-9.551,21.333-21.333v-32C341.333,292.776,336.558,288,330.667,288z M320,330.667H170.667v-21.333H320V330.667z"
			/>
	</g>
</g>
<g>
	<g>
		<path d="M501.333,288H330.667c-5.891,0-10.667,4.776-10.667,10.667v32c0,11.782,9.551,21.333,21.333,21.333h149.333
			c11.782,0,21.333-9.551,21.333-21.333v-32C512,292.776,507.224,288,501.333,288z M490.667,330.667H341.333v-21.333h149.333
			V330.667z"/>
	</g>
</g>
<g>
	<g>
		<path d="M490.667,245.333H341.333c-11.782,0-21.333,9.551-21.333,21.333v32c0,5.891,4.776,10.667,10.667,10.667h170.667
			c5.891,0,10.667-4.776,10.667-10.667v-32C512,254.885,502.449,245.333,490.667,245.333z M490.667,288H341.333v-21.333h149.333V288
			z"/>
	</g>
</g>
<g>
	<g>
		<path d="M501.333,202.667H330.667c-5.891,0-10.667,4.776-10.667,10.667v32c0,11.782,9.551,21.333,21.333,21.333h149.333
			c11.782,0,21.333-9.551,21.333-21.333v-32C512,207.442,507.224,202.667,501.333,202.667z M490.667,245.333H341.333V224h149.333
			V245.333z"/>
	</g>
</g>
<g>
</g>
<g>
</g>
<g>
</g>
<g>
</g>
<g>
</g>
<g>
</g>
<g>
</g>
<g>
</g>
<g>
</g>
<g>
</g>
<g>
</g>
<g>
</g>
<g>
</g>
<g>
</g>
<g>
</g>
</svg>
