<?xml version="1.0" encoding="iso-8859-1"?>
<!-- Generator: Adobe Illustrator 19.0.0, SVG Export Plug-In . SVG Version: 6.00 Build 0)  -->
<svg version="1.1" id="Capa_1" xmlns="http://www.w3.org/2000/svg" xmlns:xlink="http://www.w3.org/1999/xlink" x="0px" y="0px"
	 viewBox="0 0 511 511" style="enable-background:new 0 0 511 511;" xml:space="preserve">
<g>
	<path d="M255.492,303c26.191,0,47.5-21.309,47.5-47.5s-21.309-47.5-47.5-47.5s-47.5,21.309-47.5,47.5S229.301,303,255.492,303z
		 M255.492,223c17.92,0,32.5,14.58,32.5,32.5s-14.58,32.5-32.5,32.5s-32.5-14.58-32.5-32.5S237.572,223,255.492,223z"/>
	<path d="M94.992,199.5c0-17.369-14.131-31.5-31.5-31.5s-31.5,14.131-31.5,31.5s14.131,31.5,31.5,31.5S94.992,216.869,94.992,199.5z
		 M46.992,199.5c0-9.098,7.402-16.5,16.5-16.5s16.5,7.402,16.5,16.5S72.59,216,63.492,216S46.992,208.598,46.992,199.5z"/>
	<path d="M391.492,151c17.369,0,31.5-14.131,31.5-31.5S408.861,88,391.492,88s-31.5,14.131-31.5,31.5S374.123,151,391.492,151z
		 M391.492,103c9.098,0,16.5,7.402,16.5,16.5s-7.402,16.5-16.5,16.5s-16.5-7.402-16.5-16.5S382.394,103,391.492,103z"/>
	<path d="M238.992,455.5c0-17.369-14.131-31.5-31.5-31.5s-31.5,14.131-31.5,31.5s14.131,31.5,31.5,31.5
		S238.992,472.869,238.992,455.5z M207.492,472c-9.098,0-16.5-7.402-16.5-16.5s7.402-16.5,16.5-16.5s16.5,7.402,16.5,16.5
		S216.59,472,207.492,472z"/>
	<path d="M322.317,392.19c-4.035-0.93-8.062,1.587-8.993,5.625C299.368,458.377,277.208,496,255.492,496
		c-5.092,0-10.309-2.128-15.507-6.324c-3.224-2.602-7.945-2.099-10.547,1.124s-2.099,7.945,1.124,10.547
		c7.934,6.406,16.321,9.653,24.93,9.653c15.925,0,30.593-10.757,43.597-31.971c11.44-18.662,21.417-45.581,28.852-77.846
		C328.871,397.147,326.353,393.121,322.317,392.19z"/>
	<path d="M475.879,339.897c-6.383-15.283-18.048-32.353-34.671-50.736c-10.056-11.121-21.643-22.404-34.49-33.655
		c21.132-18.48,38.52-36.775,51.318-54.099c22.493-30.448,28.968-55.918,18.726-73.657c-6.407-11.099-18.576-18.049-36.167-20.66
		c-4.103-0.604-7.912,2.221-8.52,6.318c-0.608,4.097,2.221,7.912,6.318,8.52c12.836,1.905,21.375,6.387,25.379,13.322
		c10.641,18.43-10.501,60.159-68.591,110.443c-16.335-13.507-34.398-26.886-53.767-39.8c-1.498-23.213-4.051-45.53-7.576-66.416
		c4.944-1.707,9.841-3.317,14.674-4.814c3.957-1.225,6.172-5.426,4.947-9.382c-1.225-3.957-5.428-6.17-9.382-4.947
		c-4.277,1.324-8.609,2.749-12.969,4.233c-3.322-16.765-7.302-32.453-11.908-46.732c-7.609-23.588-16.56-42.225-26.603-55.394
		C281.239,7.55,268.755,0,255.492,0c-15.541,0-29.902,10.263-42.684,30.504c-11.226,17.776-21.118,43.511-28.608,74.421
		c-0.976,4.025,1.497,8.08,5.523,9.055c4.023,0.976,8.08-1.497,9.055-5.523C212.746,50.811,234.478,15,255.492,15
		c17.33,0,35.809,25.211,49.431,67.44c4.634,14.364,8.618,30.217,11.909,47.215c-19.937,7.419-40.537,16.364-61.326,26.637
		c-43.247-21.382-85.438-36.939-122.022-44.796c-24.232-5.204-44.847-6.771-61.274-4.658c-18.574,2.39-31.354,9.425-37.986,20.912
		c-5.349,9.264-6.181,20.64-2.473,33.81c1.122,3.987,5.263,6.308,9.252,5.187c3.987-1.123,6.309-5.265,5.187-9.252
		c-2.571-9.13-2.226-16.614,1.024-22.244c8.665-15.008,39.738-18.406,83.12-9.088c32.582,6.997,69.867,20.361,108.422,38.674
		c-9.009,4.737-18.026,9.698-27.014,14.887c-5.418,3.128-10.854,6.354-16.157,9.587c-3.537,2.156-4.656,6.771-2.5,10.308
		c1.413,2.317,3.881,3.597,6.411,3.597c1.33,0,2.678-0.354,3.897-1.097c5.202-3.171,10.534-6.336,15.849-9.405
		c12.074-6.971,24.195-13.523,36.267-19.643c12.038,6.108,24.149,12.667,36.233,19.643c12.09,6.98,23.831,14.193,35.144,21.567
		c0.73,13.485,1.106,27.26,1.106,41.22c0,32.944-2.068,64.904-6.146,94.993c-0.556,4.104,2.32,7.883,6.425,8.439
		c0.342,0.046,0.681,0.069,1.017,0.069c3.694,0,6.913-2.731,7.423-6.494c4.168-30.754,6.282-63.392,6.282-97.007
		c0-10.385-0.204-20.676-0.604-30.831c14.633,10.092,28.407,20.424,41.12,30.829c-8.748,7.142-18.208,14.429-28.415,21.826
		c-3.354,2.431-4.102,7.12-1.671,10.474c1.467,2.024,3.756,3.099,6.079,3.099c1.525,0,3.065-0.464,4.395-1.428
		c11.061-8.017,21.503-16.089,31.269-24.153c13.068,11.344,24.799,22.716,34.917,33.905c29.76,32.912,42.354,61.521,33.689,76.528
		s-39.738,18.404-83.12,9.088c-32.578-6.997-69.86-20.359-108.411-38.669c8.994-4.731,18.008-9.699,27.002-14.892
		c3.017-1.742,6.076-3.535,9.093-5.331c3.559-2.119,4.728-6.721,2.609-10.281c-2.118-3.559-6.72-4.728-10.281-2.609
		c-2.96,1.762-5.962,3.522-8.921,5.23c-12.09,6.98-24.207,13.542-36.25,19.652c-12.043-6.11-24.16-12.672-36.25-19.652
		c-12.089-6.98-23.825-14.196-35.149-21.579c-0.728-13.477-1.101-27.241-1.101-41.208c0-32.944,2.068-64.904,6.146-94.993
		c0.556-4.104-2.32-7.883-6.425-8.439c-4.105-0.557-7.883,2.321-8.439,6.425c-4.168,30.754-6.282,63.392-6.282,97.007
		c0,10.388,0.204,20.671,0.601,30.816c-14.587-10.065-28.347-20.388-41.097-30.83c8.743-7.137,18.197-14.419,28.395-21.81
		c3.354-2.431,4.102-7.12,1.671-10.474c-2.43-3.353-7.119-4.103-10.474-1.671c-11.05,8.009-21.482,16.073-31.24,24.129
		c-5.266-4.573-10.354-9.158-15.197-13.747c-3.007-2.85-7.754-2.722-10.603,0.285c-2.849,3.007-2.722,7.754,0.285,10.603
		c4.468,4.234,9.132,8.463,13.947,12.681c-21.138,18.484-38.531,36.783-51.332,54.111c-22.493,30.448-28.968,55.918-18.727,73.658
		c6.631,11.486,19.412,18.522,37.986,20.912c4.724,0.608,9.795,0.911,15.198,0.911c13.385,0,28.813-1.862,46.076-5.569
		c14.668-3.15,30.242-7.547,46.419-13.052c1.558,7.846,3.25,15.496,5.101,22.883c0.854,3.406,3.91,5.679,7.269,5.679
		c0.604,0,1.217-0.074,1.829-0.227c4.018-1.007,6.458-5.08,5.452-9.098c-1.962-7.831-3.752-15.956-5.375-24.324
		c19.854-7.391,40.459-16.34,61.315-26.65c43.243,21.379,85.429,36.934,122.009,44.79c17.265,3.708,32.69,5.569,46.076,5.569
		c5.402,0,10.475-0.304,15.198-0.911c18.574-2.39,31.354-9.426,37.986-20.912C483.393,371.764,483.096,357.178,475.879,339.897z
		 M299.242,179.723c-8.985-5.188-17.99-10.152-26.975-14.878c15.999-7.593,31.822-14.355,47.24-20.178
		c2.652,16.203,4.71,33.287,6.133,50.994C317.046,190.237,308.236,184.915,299.242,179.723z M130.333,384.838
		c-43.382,9.317-74.455,5.919-83.12-9.088c-10.641-18.43,10.503-60.162,68.598-110.449c16.394,13.562,34.443,26.929,53.762,39.809
		c1.493,23.183,4.042,45.475,7.591,66.438C160.803,377.195,145.085,381.67,130.333,384.838z M191.505,366.359
		c-2.672-16.266-4.742-33.336-6.164-51.024c8.598,5.426,17.406,10.749,26.401,15.942c8.994,5.193,18.008,10.161,27.002,14.892
		C222.694,353.792,206.867,360.553,191.505,366.359z"/>
	<path d="M255.492,255c0.276,0,0.5,0.224,0.5,0.5c0,4.142,3.358,7.5,7.5,7.5s7.5-3.358,7.5-7.5c0-8.547-6.953-15.5-15.5-15.5
		c-4.142,0-7.5,3.358-7.5,7.5S251.35,255,255.492,255z"/>
</g>
<g>
</g>
<g>
</g>
<g>
</g>
<g>
</g>
<g>
</g>
<g>
</g>
<g>
</g>
<g>
</g>
<g>
</g>
<g>
</g>
<g>
</g>
<g>
</g>
<g>
</g>
<g>
</g>
<g>
</g>
</svg>
